# xmcd
#
# Track frame offsets:
#	150
#	21025
#	34872
#	49760
#	64122
#	80335
#	97527
#	120562
#	136662
#	152757
#
# Disc length: 2216 seconds
#
# Revision: 3
# Processed by: cddbd v1.5.2PL0 Copyright (c) Steve Scherf et al.
# Submitted via: audiograbber 1.83.01
#
DISCID=6d08a60a
DTITLE=Dan Seals - On The Front Line
DYEAR=1986
DGENRE=Country
TTITLE0=Out On The Front Line
TTITLE1=Three Time Loser
TTITLE2=Love's Have Been Woven From Fewer Threads Than These
TTITLE3=It's Gonna Be Easy Now
TTITLE4=Guitar Man Out Of Control
TTITLE5=I Will Be There
TTITLE6=You Still Move Me
TTITLE7=While I'm Here
TTITLE8=I'm Still Strung Out On You
TTITLE9=Lullabye (Duet With Emmylou Harris)
EXTD=
EXTT0=
EXTT1=
EXTT2=
EXTT3=
EXTT4=
EXTT5=
EXTT6=
EXTT7=
EXTT8=
EXTT9=
PLAYORDER=
